<?xml version="1.0" encoding="UTF-8" standalone="no"?>
<!DOCTYPE svg PUBLIC "-//W3C//DTD SVG 1.1//EN"
 "http://www.w3.org/Graphics/SVG/1.1/DTD/svg11.dtd">
<!-- Generated by graphviz version 2.36.0 (20140111.2315)
 -->
<!-- Title: controllers_diagram Pages: 1 -->
<svg width="648pt" height="577pt"
 viewBox="0.00 0.00 648.31 577.00" xmlns="http://www.w3.org/2000/svg" xmlns:xlink="http://www.w3.org/1999/xlink">
<g id="graph0" class="graph" transform="scale(1 1) rotate(0) translate(4 573)">
<title>controllers_diagram</title>
<polygon fill="white" stroke="none" points="-4,4 -4,-573 644.312,-573 644.312,4 -4,4"/>
<!-- _diagram_info -->
<g id="node1" class="node"><title>_diagram_info</title>
<text text-anchor="start" x="25" y="-109.6" font-family="Times,serif" font-size="13.00">Controllers diagram</text>
<text text-anchor="start" x="25" y="-96.6" font-family="Times,serif" font-size="13.00">Date: Oct 20 2014 &#45; 19:51</text>
<text text-anchor="start" x="25" y="-83.6" font-family="Times,serif" font-size="13.00">Migration version: 20141019213556</text>
<text text-anchor="start" x="25" y="-70.6" font-family="Times,serif" font-size="13.00">Generated by RailRoady 1.2.0</text>
<text text-anchor="start" x="25" y="-57.6" font-family="Times,serif" font-size="13.00">http://railroady.prestonlee.com</text>
</g>
<!-- ApplicationController -->
<g id="node2" class="node"><title>ApplicationController</title>
<path fill="none" stroke="black" d="M12,-476.5C12,-476.5 127.642,-476.5 127.642,-476.5 133.642,-476.5 139.642,-482.5 139.642,-488.5 139.642,-488.5 139.642,-556.5 139.642,-556.5 139.642,-562.5 133.642,-568.5 127.642,-568.5 127.642,-568.5 12,-568.5 12,-568.5 6,-568.5 2.84217e-14,-562.5 2.84217e-14,-556.5 2.84217e-14,-556.5 2.84217e-14,-488.5 2.84217e-14,-488.5 2.84217e-14,-482.5 6,-476.5 12,-476.5"/>
<text text-anchor="middle" x="69.8208" y="-553.3" font-family="Times,serif" font-size="14.00">ApplicationController</text>
<polyline fill="none" stroke="black" points="2.84217e-14,-546.5 139.642,-546.5 "/>
<polyline fill="none" stroke="black" points="2.84217e-14,-522.5 139.642,-522.5 "/>
<polyline fill="none" stroke="black" points="2.84217e-14,-498.5 139.642,-498.5 "/>
<text text-anchor="start" x="8" y="-483.3" font-family="Times,serif" font-size="14.00">_layout</text>
</g>
<!-- BondsController -->
<g id="node3" class="node"><title>BondsController</title>
<path fill="none" stroke="black" d="M352,-119.5C352,-119.5 437.331,-119.5 437.331,-119.5 443.331,-119.5 449.331,-125.5 449.331,-131.5 449.331,-131.5 449.331,-309.5 449.331,-309.5 449.331,-315.5 443.331,-321.5 437.331,-321.5 437.331,-321.5 352,-321.5 352,-321.5 346,-321.5 340,-315.5 340,-309.5 340,-309.5 340,-131.5 340,-131.5 340,-125.5 346,-119.5 352,-119.5"/>
<text text-anchor="middle" x="394.666" y="-306.3" font-family="Times,serif" font-size="14.00">BondsController</text>
<polyline fill="none" stroke="black" points="340,-299.5 449.331,-299.5 "/>
<text text-anchor="start" x="348" y="-284.3" font-family="Times,serif" font-size="14.00">create</text>
<text text-anchor="start" x="348" y="-270.3" font-family="Times,serif" font-size="14.00">destroy</text>
<text text-anchor="start" x="348" y="-256.3" font-family="Times,serif" font-size="14.00">edit</text>
<text text-anchor="start" x="348" y="-242.3" font-family="Times,serif" font-size="14.00">index</text>
<text text-anchor="start" x="348" y="-228.3" font-family="Times,serif" font-size="14.00">new</text>
<text text-anchor="start" x="348" y="-214.3" font-family="Times,serif" font-size="14.00">show</text>
<text text-anchor="start" x="348" y="-200.3" font-family="Times,serif" font-size="14.00">update</text>
<polyline fill="none" stroke="black" points="340,-193.5 449.331,-193.5 "/>
<polyline fill="none" stroke="black" points="340,-169.5 449.331,-169.5 "/>
<text text-anchor="start" x="348" y="-154.3" font-family="Times,serif" font-size="14.00">_layout</text>
<text text-anchor="start" x="348" y="-140.3" font-family="Times,serif" font-size="14.00">bond_params</text>
<text text-anchor="start" x="348" y="-126.3" font-family="Times,serif" font-size="14.00">set_bond</text>
</g>
<!-- EmailTemplatesController -->
<g id="node4" class="node"><title>EmailTemplatesController</title>
<path fill="none" stroke="black" d="M488,-0.5C488,-0.5 628.312,-0.5 628.312,-0.5 634.312,-0.5 640.312,-6.5 640.312,-12.5 640.312,-12.5 640.312,-134.5 640.312,-134.5 640.312,-140.5 634.312,-146.5 628.312,-146.5 628.312,-146.5 488,-146.5 488,-146.5 482,-146.5 476,-140.5 476,-134.5 476,-134.5 476,-12.5 476,-12.5 476,-6.5 482,-0.5 488,-0.5"/>
<text text-anchor="middle" x="558.156" y="-131.3" font-family="Times,serif" font-size="14.00">EmailTemplatesController</text>
<polyline fill="none" stroke="black" points="476,-124.5 640.312,-124.5 "/>
<text text-anchor="start" x="484" y="-109.3" font-family="Times,serif" font-size="14.00">create</text>
<text text-anchor="start" x="484" y="-95.3" font-family="Times,serif" font-size="14.00">email_template_params</text>
<text text-anchor="start" x="484" y="-81.3" font-family="Times,serif" font-size="14.00">get</text>
<text text-anchor="start" x="484" y="-67.3" font-family="Times,serif" font-size="14.00">index</text>
<text text-anchor="start" x="484" y="-53.3" font-family="Times,serif" font-size="14.00">new</text>
<polyline fill="none" stroke="black" points="476,-46.5 640.312,-46.5 "/>
<polyline fill="none" stroke="black" points="476,-22.5 640.312,-22.5 "/>
<text text-anchor="start" x="484" y="-7.3" font-family="Times,serif" font-size="14.00">_layout</text>
</g>
<!-- InterestsController -->
<g id="node5" class="node"><title>InterestsController</title>
<path fill="none" stroke="black" d="M335,-357.5C335,-357.5 431.973,-357.5 431.973,-357.5 437.973,-357.5 443.973,-363.5 443.973,-369.5 443.973,-369.5 443.973,-547.5 443.973,-547.5 443.973,-553.5 437.973,-559.5 431.973,-559.5 431.973,-559.5 335,-559.5 335,-559.5 329,-559.5 323,-553.5 323,-547.5 323,-547.5 323,-369.5 323,-369.5 323,-363.5 329,-357.5 335,-357.5"/>
<text text-anchor="middle" x="383.486" y="-544.3" font-family="Times,serif" font-size="14.00">InterestsController</text>
<polyline fill="none" stroke="black" points="323,-537.5 443.973,-537.5 "/>
<text text-anchor="start" x="331" y="-522.3" font-family="Times,serif" font-size="14.00">create</text>
<text text-anchor="start" x="331" y="-508.3" font-family="Times,serif" font-size="14.00">destroy</text>
<text text-anchor="start" x="331" y="-494.3" font-family="Times,serif" font-size="14.00">edit</text>
<text text-anchor="start" x="331" y="-480.3" font-family="Times,serif" font-size="14.00">index</text>
<text text-anchor="start" x="331" y="-466.3" font-family="Times,serif" font-size="14.00">new</text>
<text text-anchor="start" x="331" y="-452.3" font-family="Times,serif" font-size="14.00">show</text>
<text text-anchor="start" x="331" y="-438.3" font-family="Times,serif" font-size="14.00">update</text>
<polyline fill="none" stroke="black" points="323,-431.5 443.973,-431.5 "/>
<polyline fill="none" stroke="black" points="323,-407.5 443.973,-407.5 "/>
<text text-anchor="start" x="331" y="-392.3" font-family="Times,serif" font-size="14.00">_layout</text>
<text text-anchor="start" x="331" y="-378.3" font-family="Times,serif" font-size="14.00">interest_params</text>
<text text-anchor="start" x="331" y="-364.3" font-family="Times,serif" font-size="14.00">set_interest</text>
</g>
<!-- MarketingCampaignsController -->
<g id="node6" class="node"><title>MarketingCampaignsController</title>
<path fill="none" stroke="black" d="M131,-153.5C131,-153.5 301.855,-153.5 301.855,-153.5 307.855,-153.5 313.855,-159.5 313.855,-165.5 313.855,-165.5 313.855,-315.5 313.855,-315.5 313.855,-321.5 307.855,-327.5 301.855,-327.5 301.855,-327.5 131,-327.5 131,-327.5 125,-327.5 119,-321.5 119,-315.5 119,-315.5 119,-165.5 119,-165.5 119,-159.5 125,-153.5 131,-153.5"/>
<text text-anchor="middle" x="216.428" y="-312.3" font-family="Times,serif" font-size="14.00">MarketingCampaignsController</text>
<polyline fill="none" stroke="black" points="119,-305.5 313.855,-305.5 "/>
<text text-anchor="start" x="127" y="-290.3" font-family="Times,serif" font-size="14.00">create</text>
<text text-anchor="start" x="127" y="-276.3" font-family="Times,serif" font-size="14.00">dashboard</text>
<text text-anchor="start" x="127" y="-262.3" font-family="Times,serif" font-size="14.00">index</text>
<text text-anchor="start" x="127" y="-248.3" font-family="Times,serif" font-size="14.00">new_email</text>
<text text-anchor="start" x="127" y="-234.3" font-family="Times,serif" font-size="14.00">new_sms</text>
<polyline fill="none" stroke="black" points="119,-227.5 313.855,-227.5 "/>
<polyline fill="none" stroke="black" points="119,-203.5 313.855,-203.5 "/>
<text text-anchor="start" x="127" y="-188.3" font-family="Times,serif" font-size="14.00">_layout</text>
<text text-anchor="start" x="127" y="-174.3" font-family="Times,serif" font-size="14.00">marketing_campaign_params</text>
<text text-anchor="start" x="127" y="-160.3" font-family="Times,serif" font-size="14.00">resolve_people_list</text>
</g>
<!-- PeopleController -->
<g id="node7" class="node"><title>PeopleController</title>
<path fill="none" stroke="black" d="M182,-357.5C182,-357.5 269.648,-357.5 269.648,-357.5 275.648,-357.5 281.648,-363.5 281.648,-369.5 281.648,-369.5 281.648,-547.5 281.648,-547.5 281.648,-553.5 275.648,-559.5 269.648,-559.5 269.648,-559.5 182,-559.5 182,-559.5 176,-559.5 170,-553.5 170,-547.5 170,-547.5 170,-369.5 170,-369.5 170,-363.5 176,-357.5 182,-357.5"/>
<text text-anchor="middle" x="225.824" y="-544.3" font-family="Times,serif" font-size="14.00">PeopleController</text>
<polyline fill="none" stroke="black" points="170,-537.5 281.648,-537.5 "/>
<text text-anchor="start" x="178" y="-522.3" font-family="Times,serif" font-size="14.00">create</text>
<text text-anchor="start" x="178" y="-508.3" font-family="Times,serif" font-size="14.00">destroy</text>
<text text-anchor="start" x="178" y="-494.3" font-family="Times,serif" font-size="14.00">edit</text>
<text text-anchor="start" x="178" y="-480.3" font-family="Times,serif" font-size="14.00">index</text>
<text text-anchor="start" x="178" y="-466.3" font-family="Times,serif" font-size="14.00">new</text>
<text text-anchor="start" x="178" y="-452.3" font-family="Times,serif" font-size="14.00">show</text>
<text text-anchor="start" x="178" y="-438.3" font-family="Times,serif" font-size="14.00">update</text>
<polyline fill="none" stroke="black" points="170,-431.5 281.648,-431.5 "/>
<polyline fill="none" stroke="black" points="170,-407.5 281.648,-407.5 "/>
<text text-anchor="start" x="178" y="-392.3" font-family="Times,serif" font-size="14.00">_layout</text>
<text text-anchor="start" x="178" y="-378.3" font-family="Times,serif" font-size="14.00">person_params</text>
<text text-anchor="start" x="178" y="-364.3" font-family="Times,serif" font-size="14.00">set_person</text>
</g>
<!-- PeopleListsController -->
<g id="node8" class="node"><title>PeopleListsController</title>
<path fill="none" stroke="black" d="M12,-357.5C12,-357.5 126.876,-357.5 126.876,-357.5 132.876,-357.5 138.876,-363.5 138.876,-369.5 138.876,-369.5 138.876,-437.5 138.876,-437.5 138.876,-443.5 132.876,-449.5 126.876,-449.5 126.876,-449.5 12,-449.5 12,-449.5 6,-449.5 2.84217e-14,-443.5 2.84217e-14,-437.5 2.84217e-14,-437.5 2.84217e-14,-369.5 2.84217e-14,-369.5 2.84217e-14,-363.5 6,-357.5 12,-357.5"/>
<text text-anchor="middle" x="69.438" y="-434.3" font-family="Times,serif" font-size="14.00">PeopleListsController</text>
<polyline fill="none" stroke="black" points="2.84217e-14,-427.5 138.876,-427.5 "/>
<polyline fill="none" stroke="black" points="2.84217e-14,-403.5 138.876,-403.5 "/>
<polyline fill="none" stroke="black" points="2.84217e-14,-379.5 138.876,-379.5 "/>
<text text-anchor="start" x="8" y="-364.3" font-family="Times,serif" font-size="14.00">_layout</text>
</g>
</g>
</svg>
