<?xml version="1.0" encoding="UTF-8" standalone="no"?>
<!DOCTYPE svg PUBLIC "-//W3C//DTD SVG 1.1//EN"
 "http://www.w3.org/Graphics/SVG/1.1/DTD/svg11.dtd">
<!-- Generated by graphviz version 2.36.0 (20140111.2315)
 -->
<!-- Title: models_diagram Pages: 1 -->
<svg width="1913pt" height="530pt"
 viewBox="0.00 0.00 1913.00 530.00" xmlns="http://www.w3.org/2000/svg" xmlns:xlink="http://www.w3.org/1999/xlink">
<g id="graph0" class="graph" transform="scale(1 1) rotate(0) translate(4 526)">
<title>models_diagram</title>
<polygon fill="white" stroke="none" points="-4,4 -4,-526 1909,-526 1909,4 -4,4"/>
<!-- _diagram_info -->
<g id="node1" class="node"><title>_diagram_info</title>
<text text-anchor="start" x="7.31226" y="-430.1" font-family="Times,serif" font-size="13.00">Models diagram</text>
<text text-anchor="start" x="7.31226" y="-417.1" font-family="Times,serif" font-size="13.00">Date: Oct 20 2014 &#45; 19:51</text>
<text text-anchor="start" x="7.31226" y="-404.1" font-family="Times,serif" font-size="13.00">Migration version: 20141019213556</text>
<text text-anchor="start" x="7.31226" y="-391.1" font-family="Times,serif" font-size="13.00">Generated by RailRoady 1.2.0</text>
<text text-anchor="start" x="7.31226" y="-378.1" font-family="Times,serif" font-size="13.00">http://railroady.prestonlee.com</text>
</g>
<!-- Bond -->
<g id="node2" class="node"><title>Bond</title>
<path fill="none" stroke="black" d="M387.495,-365C387.495,-365 496.505,-365 496.505,-365 502.505,-365 508.505,-371 508.505,-377 508.505,-377 508.505,-439 508.505,-439 508.505,-445 502.505,-451 496.505,-451 496.505,-451 387.495,-451 387.495,-451 381.495,-451 375.495,-445 375.495,-439 375.495,-439 375.495,-377 375.495,-377 375.495,-371 381.495,-365 387.495,-365"/>
<text text-anchor="middle" x="442" y="-435.8" font-family="Times,serif" font-size="14.00">Bond</text>
<polyline fill="none" stroke="black" points="375.495,-429 508.505,-429 "/>
<text text-anchor="start" x="383.495" y="-413.8" font-family="Times,serif" font-size="14.00">id :integer</text>
<text text-anchor="start" x="383.495" y="-399.8" font-family="Times,serif" font-size="14.00">name :string</text>
<text text-anchor="start" x="383.495" y="-385.8" font-family="Times,serif" font-size="14.00">created_at :datetime</text>
<text text-anchor="start" x="383.495" y="-371.8" font-family="Times,serif" font-size="14.00">updated_at :datetime</text>
</g>
<!-- Person -->
<g id="node11" class="node"><title>Person</title>
<path fill="none" stroke="black" d="M544.371,-73C544.371,-73 659.629,-73 659.629,-73 665.629,-73 671.629,-79 671.629,-85 671.629,-85 671.629,-245 671.629,-245 671.629,-251 665.629,-257 659.629,-257 659.629,-257 544.371,-257 544.371,-257 538.371,-257 532.371,-251 532.371,-245 532.371,-245 532.371,-85 532.371,-85 532.371,-79 538.371,-73 544.371,-73"/>
<text text-anchor="middle" x="602" y="-241.8" font-family="Times,serif" font-size="14.00">Person</text>
<polyline fill="none" stroke="black" points="532.371,-235 671.629,-235 "/>
<text text-anchor="start" x="540.371" y="-219.8" font-family="Times,serif" font-size="14.00">id :integer</text>
<text text-anchor="start" x="540.371" y="-205.8" font-family="Times,serif" font-size="14.00">name :string</text>
<text text-anchor="start" x="540.371" y="-191.8" font-family="Times,serif" font-size="14.00">email :string</text>
<text text-anchor="start" x="540.371" y="-177.8" font-family="Times,serif" font-size="14.00">phone_number :string</text>
<text text-anchor="start" x="540.371" y="-163.8" font-family="Times,serif" font-size="14.00">cell_number :string</text>
<text text-anchor="start" x="540.371" y="-149.8" font-family="Times,serif" font-size="14.00">twitter :string</text>
<text text-anchor="start" x="540.371" y="-135.8" font-family="Times,serif" font-size="14.00">facebook :string</text>
<text text-anchor="start" x="540.371" y="-121.8" font-family="Times,serif" font-size="14.00">instagram :string</text>
<text text-anchor="start" x="540.371" y="-107.8" font-family="Times,serif" font-size="14.00">bond_id :integer</text>
<text text-anchor="start" x="540.371" y="-93.8" font-family="Times,serif" font-size="14.00">created_at :datetime</text>
<text text-anchor="start" x="540.371" y="-79.8" font-family="Times,serif" font-size="14.00">updated_at :datetime</text>
</g>
<!-- Bond&#45;&gt;Person -->
<g id="edge1" class="edge"><title>Bond&#45;&gt;Person</title>
<path fill="none" stroke="#30c92e" d="M474.562,-357.954C492.207,-331.376 514.672,-297.538 535.811,-265.698"/>
<ellipse fill="none" stroke="#30c92e" cx="472.265" cy="-361.413" rx="4.00002" ry="4.00002"/>
<polygon fill="#30c92e" stroke="#30c92e" points="535.91,-265.548 545.19,-259.705 538.676,-261.382 541.441,-257.216 541.441,-257.216 541.441,-257.216 538.676,-261.382 537.692,-254.727 535.91,-265.548 535.91,-265.548"/>
</g>
<!-- EmailTemplate -->
<g id="node3" class="node"><title>EmailTemplate</title>
<path fill="none" stroke="black" d="M1045.49,-358C1045.49,-358 1154.51,-358 1154.51,-358 1160.51,-358 1166.51,-364 1166.51,-370 1166.51,-370 1166.51,-446 1166.51,-446 1166.51,-452 1160.51,-458 1154.51,-458 1154.51,-458 1045.49,-458 1045.49,-458 1039.49,-458 1033.49,-452 1033.49,-446 1033.49,-446 1033.49,-370 1033.49,-370 1033.49,-364 1039.49,-358 1045.49,-358"/>
<text text-anchor="middle" x="1100" y="-442.8" font-family="Times,serif" font-size="14.00">EmailTemplate</text>
<polyline fill="none" stroke="black" points="1033.49,-436 1166.51,-436 "/>
<text text-anchor="start" x="1041.49" y="-420.8" font-family="Times,serif" font-size="14.00">id :integer</text>
<text text-anchor="start" x="1041.49" y="-406.8" font-family="Times,serif" font-size="14.00">content :text</text>
<text text-anchor="start" x="1041.49" y="-392.8" font-family="Times,serif" font-size="14.00">created_at :datetime</text>
<text text-anchor="start" x="1041.49" y="-378.8" font-family="Times,serif" font-size="14.00">updated_at :datetime</text>
<text text-anchor="start" x="1041.49" y="-364.8" font-family="Times,serif" font-size="14.00">name :string</text>
</g>
<!-- Interest -->
<g id="node4" class="node"><title>Interest</title>
<path fill="none" stroke="black" d="M236.495,-365C236.495,-365 345.505,-365 345.505,-365 351.505,-365 357.505,-371 357.505,-377 357.505,-377 357.505,-439 357.505,-439 357.505,-445 351.505,-451 345.505,-451 345.505,-451 236.495,-451 236.495,-451 230.495,-451 224.495,-445 224.495,-439 224.495,-439 224.495,-377 224.495,-377 224.495,-371 230.495,-365 236.495,-365"/>
<text text-anchor="middle" x="291" y="-435.8" font-family="Times,serif" font-size="14.00">Interest</text>
<polyline fill="none" stroke="black" points="224.495,-429 357.505,-429 "/>
<text text-anchor="start" x="232.495" y="-413.8" font-family="Times,serif" font-size="14.00">id :integer</text>
<text text-anchor="start" x="232.495" y="-399.8" font-family="Times,serif" font-size="14.00">name :string</text>
<text text-anchor="start" x="232.495" y="-385.8" font-family="Times,serif" font-size="14.00">created_at :datetime</text>
<text text-anchor="start" x="232.495" y="-371.8" font-family="Times,serif" font-size="14.00">updated_at :datetime</text>
</g>
<!-- Interest&#45;&gt;Person -->
<g id="edge3" class="edge"><title>Interest&#45;&gt;Person</title>
<path fill="none" stroke="#e0e605" d="M317.474,-356.111C330.148,-335.095 346.77,-311.591 366,-294 411.88,-252.032 474.029,-219.045 523.033,-197.075"/>
<polygon fill="#e0e605" stroke="#e0e605" points="317.352,-356.318 308.407,-362.661 314.82,-360.629 312.287,-364.94 312.287,-364.94 312.287,-364.94 314.82,-360.629 316.168,-367.219 317.352,-356.318 317.352,-356.318"/>
<polygon fill="#e0e605" stroke="#e0e605" points="523.188,-197.006 534.154,-197.082 527.762,-194.986 532.336,-192.965 532.336,-192.965 532.336,-192.965 527.762,-194.986 530.517,-188.849 523.188,-197.006 523.188,-197.006"/>
</g>
<!-- InterestsPerson -->
<g id="node13" class="node"><title>InterestsPerson</title>
<ellipse fill="none" stroke="black" cx="291" cy="-165" rx="64.2089" ry="18"/>
<text text-anchor="middle" x="291" y="-160.8" font-family="Times,serif" font-size="14.00">InterestsPerson</text>
</g>
<!-- Interest&#45;&gt;InterestsPerson -->
<g id="edge2" class="edge"><title>Interest&#45;&gt;InterestsPerson</title>
<path fill="none" stroke="#d25224" d="M291,-356.624C291,-306.991 291,-233.017 291,-193.396"/>
<ellipse fill="none" stroke="#d25224" cx="291" cy="-360.745" rx="4" ry="4"/>
<polygon fill="#d25224" stroke="#d25224" points="291,-193.18 295.5,-183.18 291,-188.18 291,-183.18 291,-183.18 291,-183.18 291,-188.18 286.5,-183.18 291,-193.18 291,-193.18"/>
</g>
<!-- MarketingCampaign -->
<g id="node5" class="node"><title>MarketingCampaign</title>
<path fill="none" stroke="black" d="M1196.21,-330C1196.21,-330 1313.79,-330 1313.79,-330 1319.79,-330 1325.79,-336 1325.79,-342 1325.79,-342 1325.79,-474 1325.79,-474 1325.79,-480 1319.79,-486 1313.79,-486 1313.79,-486 1196.21,-486 1196.21,-486 1190.21,-486 1184.21,-480 1184.21,-474 1184.21,-474 1184.21,-342 1184.21,-342 1184.21,-336 1190.21,-330 1196.21,-330"/>
<text text-anchor="middle" x="1255" y="-470.8" font-family="Times,serif" font-size="14.00">MarketingCampaign</text>
<polyline fill="none" stroke="black" points="1184.21,-464 1325.79,-464 "/>
<text text-anchor="start" x="1192.21" y="-448.8" font-family="Times,serif" font-size="14.00">id :integer</text>
<text text-anchor="start" x="1192.21" y="-434.8" font-family="Times,serif" font-size="14.00">title :string</text>
<text text-anchor="start" x="1192.21" y="-420.8" font-family="Times,serif" font-size="14.00">sms_content :string</text>
<text text-anchor="start" x="1192.21" y="-406.8" font-family="Times,serif" font-size="14.00">people_list_id :integer</text>
<text text-anchor="start" x="1192.21" y="-392.8" font-family="Times,serif" font-size="14.00">email_content :text</text>
<text text-anchor="start" x="1192.21" y="-378.8" font-family="Times,serif" font-size="14.00">type :string</text>
<text text-anchor="start" x="1192.21" y="-364.8" font-family="Times,serif" font-size="14.00">created_at :datetime</text>
<text text-anchor="start" x="1192.21" y="-350.8" font-family="Times,serif" font-size="14.00">updated_at :datetime</text>
<text text-anchor="start" x="1192.21" y="-336.8" font-family="Times,serif" font-size="14.00">sents_count :integer</text>
</g>
<!-- MarketingCampaignEmail -->
<g id="node6" class="node"><title>MarketingCampaignEmail</title>
<path fill="none" stroke="black" d="M1355.35,-330C1355.35,-330 1496.65,-330 1496.65,-330 1502.65,-330 1508.65,-336 1508.65,-342 1508.65,-342 1508.65,-474 1508.65,-474 1508.65,-480 1502.65,-486 1496.65,-486 1496.65,-486 1355.35,-486 1355.35,-486 1349.35,-486 1343.35,-480 1343.35,-474 1343.35,-474 1343.35,-342 1343.35,-342 1343.35,-336 1349.35,-330 1355.35,-330"/>
<text text-anchor="middle" x="1426" y="-470.8" font-family="Times,serif" font-size="14.00">MarketingCampaignEmail</text>
<polyline fill="none" stroke="black" points="1343.35,-464 1508.65,-464 "/>
<text text-anchor="start" x="1351.35" y="-448.8" font-family="Times,serif" font-size="14.00">id :integer</text>
<text text-anchor="start" x="1351.35" y="-434.8" font-family="Times,serif" font-size="14.00">title :string</text>
<text text-anchor="start" x="1351.35" y="-420.8" font-family="Times,serif" font-size="14.00">sms_content :string</text>
<text text-anchor="start" x="1351.35" y="-406.8" font-family="Times,serif" font-size="14.00">people_list_id :integer</text>
<text text-anchor="start" x="1351.35" y="-392.8" font-family="Times,serif" font-size="14.00">email_content :text</text>
<text text-anchor="start" x="1351.35" y="-378.8" font-family="Times,serif" font-size="14.00">type :string</text>
<text text-anchor="start" x="1351.35" y="-364.8" font-family="Times,serif" font-size="14.00">created_at :datetime</text>
<text text-anchor="start" x="1351.35" y="-350.8" font-family="Times,serif" font-size="14.00">updated_at :datetime</text>
<text text-anchor="start" x="1351.35" y="-336.8" font-family="Times,serif" font-size="14.00">sents_count :integer</text>
</g>
<!-- MarketingCampaignSms -->
<g id="node7" class="node"><title>MarketingCampaignSms</title>
<path fill="none" stroke="black" d="M1539.01,-330C1539.01,-330 1670.99,-330 1670.99,-330 1676.99,-330 1682.99,-336 1682.99,-342 1682.99,-342 1682.99,-474 1682.99,-474 1682.99,-480 1676.99,-486 1670.99,-486 1670.99,-486 1539.01,-486 1539.01,-486 1533.01,-486 1527.01,-480 1527.01,-474 1527.01,-474 1527.01,-342 1527.01,-342 1527.01,-336 1533.01,-330 1539.01,-330"/>
<text text-anchor="middle" x="1605" y="-470.8" font-family="Times,serif" font-size="14.00">MarketingCampaignSms</text>
<polyline fill="none" stroke="black" points="1527.01,-464 1682.99,-464 "/>
<text text-anchor="start" x="1535.01" y="-448.8" font-family="Times,serif" font-size="14.00">id :integer</text>
<text text-anchor="start" x="1535.01" y="-434.8" font-family="Times,serif" font-size="14.00">title :string</text>
<text text-anchor="start" x="1535.01" y="-420.8" font-family="Times,serif" font-size="14.00">sms_content :string</text>
<text text-anchor="start" x="1535.01" y="-406.8" font-family="Times,serif" font-size="14.00">people_list_id :integer</text>
<text text-anchor="start" x="1535.01" y="-392.8" font-family="Times,serif" font-size="14.00">email_content :text</text>
<text text-anchor="start" x="1535.01" y="-378.8" font-family="Times,serif" font-size="14.00">type :string</text>
<text text-anchor="start" x="1535.01" y="-364.8" font-family="Times,serif" font-size="14.00">created_at :datetime</text>
<text text-anchor="start" x="1535.01" y="-350.8" font-family="Times,serif" font-size="14.00">updated_at :datetime</text>
<text text-anchor="start" x="1535.01" y="-336.8" font-family="Times,serif" font-size="14.00">sents_count :integer</text>
</g>
<!-- PeopleList -->
<g id="node8" class="node"><title>PeopleList</title>
<path fill="none" stroke="black" d="M538.543,-337C538.543,-337 665.457,-337 665.457,-337 671.457,-337 677.457,-343 677.457,-349 677.457,-349 677.457,-467 677.457,-467 677.457,-473 671.457,-479 665.457,-479 665.457,-479 538.543,-479 538.543,-479 532.543,-479 526.543,-473 526.543,-467 526.543,-467 526.543,-349 526.543,-349 526.543,-343 532.543,-337 538.543,-337"/>
<text text-anchor="middle" x="602" y="-463.8" font-family="Times,serif" font-size="14.00">PeopleList</text>
<polyline fill="none" stroke="black" points="526.543,-457 677.457,-457 "/>
<text text-anchor="start" x="534.543" y="-441.8" font-family="Times,serif" font-size="14.00">id :integer</text>
<text text-anchor="start" x="534.543" y="-427.8" font-family="Times,serif" font-size="14.00">people_by_file :boolean</text>
<text text-anchor="start" x="534.543" y="-413.8" font-family="Times,serif" font-size="14.00">sents_count :integer</text>
<text text-anchor="start" x="534.543" y="-399.8" font-family="Times,serif" font-size="14.00">created_at :datetime</text>
<text text-anchor="start" x="534.543" y="-385.8" font-family="Times,serif" font-size="14.00">updated_at :datetime</text>
<text text-anchor="start" x="534.543" y="-371.8" font-family="Times,serif" font-size="14.00">type :string</text>
<text text-anchor="start" x="534.543" y="-357.8" font-family="Times,serif" font-size="14.00">bond_id :integer</text>
<text text-anchor="start" x="534.543" y="-343.8" font-family="Times,serif" font-size="14.00">interest_id :integer</text>
</g>
<!-- PeopleList&#45;&gt;Person -->
<g id="edge5" class="edge"><title>PeopleList&#45;&gt;Person</title>
<path fill="none" stroke="#1ebbd8" d="M602,-326.885C602,-307.811 602,-287.212 602,-267.327"/>
<polygon fill="#1ebbd8" stroke="#1ebbd8" points="602,-326.969 597.5,-336.969 602,-331.969 602,-336.969 602,-336.969 602,-336.969 602,-331.969 606.5,-336.969 602,-326.969 602,-326.969"/>
<polygon fill="#1ebbd8" stroke="#1ebbd8" points="602,-267.32 606.5,-257.32 602,-262.32 602,-257.32 602,-257.32 602,-257.32 602,-262.32 597.5,-257.321 602,-267.32 602,-267.32"/>
</g>
<!-- PeoplelistsPerson -->
<g id="node14" class="node"><title>PeoplelistsPerson</title>
<ellipse fill="none" stroke="black" cx="771" cy="-165" rx="72.255" ry="18"/>
<text text-anchor="middle" x="771" y="-160.8" font-family="Times,serif" font-size="14.00">PeoplelistsPerson</text>
</g>
<!-- PeopleList&#45;&gt;PeoplelistsPerson -->
<g id="edge4" class="edge"><title>PeopleList&#45;&gt;PeoplelistsPerson</title>
<path fill="none" stroke="#1593a6" d="M655.744,-330.36C689.126,-282.755 729.925,-224.575 752.939,-191.756"/>
<ellipse fill="none" stroke="#1593a6" cx="653.405" cy="-333.694" rx="4.00002" ry="4.00002"/>
<polygon fill="#1593a6" stroke="#1593a6" points="753.196,-191.389 762.622,-185.785 756.067,-187.295 758.938,-183.201 758.938,-183.201 758.938,-183.201 756.067,-187.295 755.253,-180.618 753.196,-191.389 753.196,-191.389"/>
</g>
<!-- PeopleListBond -->
<g id="node9" class="node"><title>PeopleListBond</title>
<path fill="none" stroke="black" d="M707.543,-337C707.543,-337 834.457,-337 834.457,-337 840.457,-337 846.457,-343 846.457,-349 846.457,-349 846.457,-467 846.457,-467 846.457,-473 840.457,-479 834.457,-479 834.457,-479 707.543,-479 707.543,-479 701.543,-479 695.543,-473 695.543,-467 695.543,-467 695.543,-349 695.543,-349 695.543,-343 701.543,-337 707.543,-337"/>
<text text-anchor="middle" x="771" y="-463.8" font-family="Times,serif" font-size="14.00">PeopleListBond</text>
<polyline fill="none" stroke="black" points="695.543,-457 846.457,-457 "/>
<text text-anchor="start" x="703.543" y="-441.8" font-family="Times,serif" font-size="14.00">id :integer</text>
<text text-anchor="start" x="703.543" y="-427.8" font-family="Times,serif" font-size="14.00">people_by_file :boolean</text>
<text text-anchor="start" x="703.543" y="-413.8" font-family="Times,serif" font-size="14.00">sents_count :integer</text>
<text text-anchor="start" x="703.543" y="-399.8" font-family="Times,serif" font-size="14.00">created_at :datetime</text>
<text text-anchor="start" x="703.543" y="-385.8" font-family="Times,serif" font-size="14.00">updated_at :datetime</text>
<text text-anchor="start" x="703.543" y="-371.8" font-family="Times,serif" font-size="14.00">type :string</text>
<text text-anchor="start" x="703.543" y="-357.8" font-family="Times,serif" font-size="14.00">bond_id :integer</text>
<text text-anchor="start" x="703.543" y="-343.8" font-family="Times,serif" font-size="14.00">interest_id :integer</text>
</g>
<!-- PeopleListBond&#45;&gt;Person -->
<g id="edge7" class="edge"><title>PeopleListBond&#45;&gt;Person</title>
<path fill="none" stroke="#c7f35c" d="M716.084,-328.688C701.982,-308.578 686.621,-286.673 671.874,-265.643"/>
<polygon fill="#c7f35c" stroke="#c7f35c" points="716.15,-328.782 718.207,-339.553 719.02,-332.875 721.891,-336.969 721.891,-336.969 721.891,-336.969 719.02,-332.875 725.576,-334.385 716.15,-328.782 716.15,-328.782"/>
<polygon fill="#c7f35c" stroke="#c7f35c" points="671.78,-265.508 669.722,-254.737 668.909,-261.414 666.038,-257.32 666.038,-257.32 666.038,-257.32 668.909,-261.414 662.354,-259.904 671.78,-265.508 671.78,-265.508"/>
</g>
<!-- PeopleListBond&#45;&gt;PeoplelistsPerson -->
<g id="edge6" class="edge"><title>PeopleListBond&#45;&gt;PeoplelistsPerson</title>
<path fill="none" stroke="#7eb792" d="M771,-328.765C771,-282.226 771,-226.055 771,-193.347"/>
<ellipse fill="none" stroke="#7eb792" cx="771" cy="-332.969" rx="4" ry="4"/>
<polygon fill="#7eb792" stroke="#7eb792" points="771,-193.201 775.5,-183.201 771,-188.201 771,-183.201 771,-183.201 771,-183.201 771,-188.201 766.5,-183.202 771,-193.201 771,-193.201"/>
</g>
<!-- PeopleListInterest -->
<g id="node10" class="node"><title>PeopleListInterest</title>
<path fill="none" stroke="black" d="M876.543,-337C876.543,-337 1003.46,-337 1003.46,-337 1009.46,-337 1015.46,-343 1015.46,-349 1015.46,-349 1015.46,-467 1015.46,-467 1015.46,-473 1009.46,-479 1003.46,-479 1003.46,-479 876.543,-479 876.543,-479 870.543,-479 864.543,-473 864.543,-467 864.543,-467 864.543,-349 864.543,-349 864.543,-343 870.543,-337 876.543,-337"/>
<text text-anchor="middle" x="940" y="-463.8" font-family="Times,serif" font-size="14.00">PeopleListInterest</text>
<polyline fill="none" stroke="black" points="864.543,-457 1015.46,-457 "/>
<text text-anchor="start" x="872.543" y="-441.8" font-family="Times,serif" font-size="14.00">id :integer</text>
<text text-anchor="start" x="872.543" y="-427.8" font-family="Times,serif" font-size="14.00">people_by_file :boolean</text>
<text text-anchor="start" x="872.543" y="-413.8" font-family="Times,serif" font-size="14.00">sents_count :integer</text>
<text text-anchor="start" x="872.543" y="-399.8" font-family="Times,serif" font-size="14.00">created_at :datetime</text>
<text text-anchor="start" x="872.543" y="-385.8" font-family="Times,serif" font-size="14.00">updated_at :datetime</text>
<text text-anchor="start" x="872.543" y="-371.8" font-family="Times,serif" font-size="14.00">type :string</text>
<text text-anchor="start" x="872.543" y="-357.8" font-family="Times,serif" font-size="14.00">bond_id :integer</text>
<text text-anchor="start" x="872.543" y="-343.8" font-family="Times,serif" font-size="14.00">interest_id :integer</text>
</g>
<!-- PeopleListInterest&#45;&gt;Person -->
<g id="edge9" class="edge"><title>PeopleListInterest&#45;&gt;Person</title>
<path fill="none" stroke="#8eaef5" d="M893.211,-329.049C882.154,-315.695 869.342,-303.187 855,-294 791.431,-253.279 754.759,-295.08 689,-258 685.939,-256.274 682.922,-254.405 679.953,-252.417"/>
<polygon fill="#8eaef5" stroke="#8eaef5" points="893.299,-329.159 895.993,-339.788 896.408,-333.074 899.517,-336.99 899.517,-336.99 899.517,-336.99 896.408,-333.074 903.041,-334.192 893.299,-329.159 893.299,-329.159"/>
<polygon fill="#8eaef5" stroke="#8eaef5" points="679.855,-252.347 674.346,-242.864 675.79,-249.435 671.725,-246.523 671.725,-246.523 671.725,-246.523 675.79,-249.435 669.105,-250.181 679.855,-252.347 679.855,-252.347"/>
</g>
<!-- PeopleListInterest&#45;&gt;PeoplelistsPerson -->
<g id="edge8" class="edge"><title>PeopleListInterest&#45;&gt;PeoplelistsPerson</title>
<path fill="none" stroke="#41ae16" d="M886.256,-330.36C852.874,-282.755 812.075,-224.575 789.061,-191.756"/>
<ellipse fill="none" stroke="#41ae16" cx="888.595" cy="-333.694" rx="4.00002" ry="4.00002"/>
<polygon fill="#41ae16" stroke="#41ae16" points="788.804,-191.389 786.747,-180.618 785.933,-187.295 783.062,-183.201 783.062,-183.201 783.062,-183.201 785.933,-187.295 779.378,-185.785 788.804,-191.389 788.804,-191.389"/>
</g>
<!-- PeopleInterest -->
<g id="node15" class="node"><title>PeopleInterest</title>
<ellipse fill="none" stroke="black" cx="527" cy="-18" rx="60.5395" ry="18"/>
<text text-anchor="middle" x="527" y="-13.8" font-family="Times,serif" font-size="14.00">PeopleInterest</text>
</g>
<!-- Person&#45;&gt;PeopleInterest -->
<g id="edge10" class="edge"><title>Person&#45;&gt;PeopleInterest</title>
<path fill="none" stroke="#f4bc8c" d="M551.216,-65.8173C547.366,-58.3733 543.73,-51.3442 540.503,-45.1054"/>
<ellipse fill="none" stroke="#f4bc8c" cx="553.09" cy="-69.4398" rx="4.00002" ry="4.00002"/>
<polygon fill="#f4bc8c" stroke="#f4bc8c" points="540.391,-44.8884 539.793,-33.9388 538.093,-40.4473 535.796,-36.0062 535.796,-36.0062 535.796,-36.0062 538.093,-40.4473 531.799,-38.0736 540.391,-44.8884 540.391,-44.8884"/>
</g>
<!-- PeoplePeopleList -->
<g id="node16" class="node"><title>PeoplePeopleList</title>
<ellipse fill="none" stroke="black" cx="678" cy="-18" rx="72.0037" ry="18"/>
<text text-anchor="middle" x="678" y="-13.8" font-family="Times,serif" font-size="14.00">PeoplePeopleList</text>
</g>
<!-- Person&#45;&gt;PeoplePeopleList -->
<g id="edge11" class="edge"><title>Person&#45;&gt;PeoplePeopleList</title>
<path fill="none" stroke="#490252" d="M653.461,-65.8173C657.363,-58.3733 661.047,-51.3442 664.317,-45.1054"/>
<ellipse fill="none" stroke="#490252" cx="651.557" cy="-69.4498" rx="4.00002" ry="4.00002"/>
<polygon fill="#490252" stroke="#490252" points="664.444,-44.8633 673.072,-38.0953 666.765,-40.4348 669.086,-36.0062 669.086,-36.0062 669.086,-36.0062 666.765,-40.4348 665.101,-33.9171 664.444,-44.8633 664.444,-44.8633"/>
</g>
<!-- User -->
<g id="node12" class="node"><title>User</title>
<path fill="none" stroke="black" d="M1712.72,-295C1712.72,-295 1893.28,-295 1893.28,-295 1899.28,-295 1905.28,-301 1905.28,-307 1905.28,-307 1905.28,-509 1905.28,-509 1905.28,-515 1899.28,-521 1893.28,-521 1893.28,-521 1712.72,-521 1712.72,-521 1706.72,-521 1700.72,-515 1700.72,-509 1700.72,-509 1700.72,-307 1700.72,-307 1700.72,-301 1706.72,-295 1712.72,-295"/>
<text text-anchor="middle" x="1803" y="-505.8" font-family="Times,serif" font-size="14.00">User</text>
<polyline fill="none" stroke="black" points="1700.72,-499 1905.28,-499 "/>
<text text-anchor="start" x="1708.72" y="-483.8" font-family="Times,serif" font-size="14.00">id :integer</text>
<text text-anchor="start" x="1708.72" y="-469.8" font-family="Times,serif" font-size="14.00">email :string</text>
<text text-anchor="start" x="1708.72" y="-455.8" font-family="Times,serif" font-size="14.00">encrypted_password :string</text>
<text text-anchor="start" x="1708.72" y="-441.8" font-family="Times,serif" font-size="14.00">reset_password_token :string</text>
<text text-anchor="start" x="1708.72" y="-427.8" font-family="Times,serif" font-size="14.00">reset_password_sent_at :datetime</text>
<text text-anchor="start" x="1708.72" y="-413.8" font-family="Times,serif" font-size="14.00">remember_created_at :datetime</text>
<text text-anchor="start" x="1708.72" y="-399.8" font-family="Times,serif" font-size="14.00">sign_in_count :integer</text>
<text text-anchor="start" x="1708.72" y="-385.8" font-family="Times,serif" font-size="14.00">current_sign_in_at :datetime</text>
<text text-anchor="start" x="1708.72" y="-371.8" font-family="Times,serif" font-size="14.00">last_sign_in_at :datetime</text>
<text text-anchor="start" x="1708.72" y="-357.8" font-family="Times,serif" font-size="14.00">current_sign_in_ip :inet</text>
<text text-anchor="start" x="1708.72" y="-343.8" font-family="Times,serif" font-size="14.00">last_sign_in_ip :inet</text>
<text text-anchor="start" x="1708.72" y="-329.8" font-family="Times,serif" font-size="14.00">created_at :datetime</text>
<text text-anchor="start" x="1708.72" y="-315.8" font-family="Times,serif" font-size="14.00">updated_at :datetime</text>
<text text-anchor="start" x="1708.72" y="-301.8" font-family="Times,serif" font-size="14.00">credits :decimal</text>
</g>
</g>
</svg>
